<?xml version="1.0" standalone="no"?><!DOCTYPE svg PUBLIC "-//W3C//DTD SVG 1.1//EN" "http://www.w3.org/Graphics/SVG/1.1/DTD/svg11.dtd"><svg t="1689093054714" class="icon" viewBox="0 0 1024 1024" version="1.1" xmlns="http://www.w3.org/2000/svg" p-id="3218" xmlns:xlink="http://www.w3.org/1999/xlink" width="32" height="32"><title>固定到左侧</title><path d="M614.4 192H358.4a21.333333 21.333333 0 0 0-21.333333 21.333333v605.866667a21.333333 21.333333 0 0 0 21.333333 21.333333h256a21.333333 21.333333 0 0 0 21.333333-21.333333V213.333333a21.333333 21.333333 0 0 0-21.333333-21.333333zM704 234.666667h238.933333a21.333333 21.333333 0 1 0 0-42.666667h-238.933333a21.333333 21.333333 0 1 0 0 42.666667zM704 388.266667h187.733333a21.333333 21.333333 0 1 0 0-42.666667h-187.733333a21.333333 21.333333 0 1 0 0 42.666667zM942.933333 499.2h-238.933333a21.333333 21.333333 0 1 0 0 42.666667h238.933333a21.333333 21.333333 0 1 0 0-42.666667zM891.733333 644.266667h-187.733333a21.333333 21.333333 0 1 0 0 42.666666h187.733333a21.333333 21.333333 0 1 0 0-42.666666zM823.466667 797.866667h-119.466667a21.333333 21.333333 0 1 0 0 42.666666h119.466667a21.333333 21.333333 0 1 0 0-42.666666zM268.8 490.666667H138.769067l87.304533-87.304534a21.316267 21.316267 0 0 0 0-30.165333 21.316267 21.316267 0 0 0-30.165333 0L72.610133 496.4864a21.316267 21.316267 0 0 0 0 30.165333l123.2896 123.298134c4.164267 4.164267 9.6256 6.2464 15.086934 6.2464s10.922667-2.082133 15.086933-6.2464a21.316267 21.316267 0 0 0 0-30.165334L139.630933 533.333333H268.8a21.333333 21.333333 0 1 0 0-42.666666z" p-id="3219"></path></svg>