<?xml version="1.0" encoding="UTF-8"?>
<svg width="17px" height="17px" viewBox="0 0 17 17" version="1.1" xmlns="http://www.w3.org/2000/svg" xmlns:xlink="http://www.w3.org/1999/xlink">
    <title>挽回设置icon</title>
    <g id="客户管理系统" stroke="none" stroke-width="1" fill="none" fill-rule="evenodd">
        <g id="客户管理系统_客户管理" transform="translate(-21.000000, -78.000000)" fill-rule="nonzero">
            <g id="菜单2" transform="translate(0.000000, 69.000000)">
                <g id="挽回设置icon" transform="translate(21.000000, 9.000000)">
                    <g id="菜单栏-客户-客户管理" transform="translate(1.502936, 0.257059)">
                        <circle id="椭圆形" stroke="#87879A" stroke-width="2" cx="7.49706407" cy="4" r="3"></circle>
                        <path d="M9.99954952,12.742941 C9.99954952,13.2952257 10.4472648,13.742941 10.9995495,13.742941 C11.5518343,13.742941 11.9995495,13.2952257 11.9995495,12.742941 C11.9995495,12.1906563 11.5518343,11.742941 10.9995495,11.742941 C10.4472648,11.742941 9.99954952,12.1906562 9.99954952,12.742941 Z" id="路径" fill="#87879A"></path>
                        <path d="M12.8300499,9.542941 L14.5056741,12.4501145 L12.8197595,15.942941 L9.16407818,15.942941 L7.488454,13.0357675 L9.17436859,9.542941 L12.8300499,9.542941 Z" id="路径" stroke="#87879A" stroke-width="1.6"></path>
                        <path d="M5.08506576,9.43351784 C2.28688916,10.4222213 0.591867237,11.4410391 0,12.489971 C0.949452507,14.8986549 1.28264467,15.7254873 1.28264467,15.7254873 C1.28264467,15.7254873 2.73097575,15.7254873 5.62763789,15.7254873" id="路径-2" stroke="#87879A" stroke-width="2"></path>
                    </g>
                </g>
            </g>
        </g>
    </g>
</svg>